<svg xmlns="http://www.w3.org/2000/svg" width="542.019" height="542.019"><path d="M294.184 315.454l22.011-28.36 9.421 7.299-22.01 28.36zm-50.265-.106l-9.736 6.986 20.952 29.207 9.736-6.984zm101.377 66.456l-11.428-3.598-10.902 34.183 11.428 3.598zm-127.41-84.023l-15.026 32.593 10.9 4.974 14.92-32.487zm50.055-58.942l33.334-13.44-4.55-11.11-33.334 13.44zm86.456-2.434l-11.851 1.694 5.29 35.555 11.853-1.693zm-28.89-36.72l-32.91-14.498-4.868 11.006 32.911 14.498zm-81.162-78.834l-11.537 33.966 11.323 3.915 11.64-34.074zm45.61 54.074l-.53-11.958-35.77 1.268.53 11.958zm-76.827-2.751l9.207-7.725-22.964-27.618-9.206 7.724zM357.786 299.9l-22.963-27.62-9.212 7.72 22.963 27.62zm-60.533 29.205l-11.217-4.022-12.169 33.758 11.217 4.02zm15.24-93.97l-12.17 33.758 11.217 4.021 12.17-33.757zM193.865 316.3l-13.016-33.546-11.108 4.341 13.014 33.543zm-55.451-92.913l11.217 4.022 12.169-33.758-11.217-4.021zm60.636 57.038l10.899-34.18-11.428-3.598-10.9 34.18zm-57.565-1.69l34.92-8.255-2.751-11.64-35.027 8.359zm167.623 115.553l-35.027 8.36 2.752 11.64 34.92-8.254zm8.465-48.89l-11.851 1.694 5.08 35.556 11.851-1.693zm11.743 106.354L316.3 418.208l-11.112 4.339 13.018 33.544zM279.583 290.06l-35.77 2.96.952 11.959 35.876-3.066zm-36.508-36.932l-11.851-1.693-4.98 35.443 11.851 1.694zm-27.196-7.513h12.064v-35.979l-12.17.106zm-40.529 1.588l11.852-1.694-5.291-35.555-11.852 1.693zm78.944 17.142l31.535 17.354 5.82-10.475-31.541-17.361zm-8.788 115.024l34.921 8.465 2.751-11.64-34.815-8.359zm143.603-79.68l.53 11.958 35.874-1.375-.53-11.958zM243.922 44.448l-9.736 6.985 20.952 29.207 9.736-6.985zm214.5 232.49l11.428 3.599 10.9-34.18-11.429-3.598zm55.662-23.915l-11.852-1.693-5.08 35.556 11.852 1.693zm-226.249 214.18l32.911 14.286 4.868-11.006-32.911-14.498zM423.287 331.75l32.911 14.498 4.868-11.006-32.911-14.498zm-175.24-107.09l27.618-22.964-7.724-9.206-27.619 22.963zm9.735 304.13l13.122 13.122 7.196-7.196-17.99-9.947zM145.188 166.458l-.953-11.958-30.265 2.539-5.185 5.185.635 7.196zm99.681-132.492l35.77-2.96-.952-11.958-30.265 2.54-5.187 5.186zm144.872 365.828l15.027 8.254 8.783-8.783-17.99-9.947zm-289.95-84.445l-35.877 3.066 1.061 11.854 35.77-2.96zm-54.499-28.255l-12.804 16.402 8.571 8.572 13.652-17.672zm208.36 148.047l.53 11.958 35.874-1.375-.53-11.958zM152.488 331.643l32.805 14.392 4.868-11.005-32.911-14.286zm-43.593-75.342L97.356 290.27l11.323 3.915 11.64-34.075zm45.609 54.075l-.53-11.958-35.774 1.271.53 11.958zm64.555 61.585l-11.852 1.693 5.186 35.45 11.851-1.693zm25.285 19.79l-11.536 33.97 11.322 3.915 11.64-34.074zm-11.218-44.657l-35.875 3.066.952 11.958 35.876-3.066zm34.815 162.65l33.334-13.44-4.55-11.112-33.333 13.44zM161.378 349.845l-33.333 13.439 4.55 11.11 33.334-13.438zm15.664 20.742l-12.17 33.755 11.216 4.021 12.17-33.757zm45.185 64.869l-22.963-27.62-9.21 7.722 23.068 27.513zM77.673 307.623l9.207-7.724-22.961-27.621-9.209 7.726zm34.922 52.488l27.619-22.963-7.724-9.207-27.62 22.963zm331.853-101.162l-34.921 8.254 2.751 11.64 34.92-8.254zm84.234-1.059l-3.489 6.459 15.027 8.254 1.588-1.588zm-39.895 39.895l-15.026 32.593 6.031 2.856 11.006-11.005 8.995-19.366zm26.032-4.868l.424 4.656 5.185-5.185zM29.42 268.89l11.217 4.022 12.17-33.756-11.217-4.022zm416.829-21.697l11.852-1.693-5.292-35.556-11.852 1.694zm-31.22-92.807l-35.77 2.96.952 11.959 35.874-2.858zM267.942 463.394l-27.619 22.963 7.725 9.206 27.619-22.963zm-32.806-12.489l-35.77 2.961.951 11.957 35.876-3.066zm-54.393-28.36l-12.805 16.402 8.572 8.571 13.651-17.672zm-24.762-15.873l-31.325-17.357-2.22 4.13 18.836 18.835 8.889 4.869zm210.797-290.798l-5.083 35.553 11.852 1.694 5.08-35.556zm11.853 272.597l-11.852-1.694-5.08 35.556 11.852 1.694zm-25.398 44.868l-15.026 32.592 6.031 2.857 11.006-11.005 8.889-19.472zm145.4-187.728v-17.778l-11.959-11.958.003 29.633zm-406.25 99.58H80.319v6.137l12.064 12.064zm135.451 135.451h-12.063v6.137l11.957 11.958zM5.714 276.723l8.995 4.974 5.82-10.476-13.332-7.408L0 271.009zm423.922-96.72l9.421 7.299 8.36-10.688-8.573-8.573zM294.184 44.55l9.421 7.3 8.36-10.688-8.571-8.572zM84.234 186.775L73.23 197.78l4.765 2.22zM310.8 111.748l11.851-1.693-5.29-35.556-11.853 1.694zm52.487-1.693l.001-17.778L351.33 80.32v29.84zm-213.125 36.191l5.82-10.475-13.333-7.41-8.783 8.783zm243.072-23.81l-3.489 6.458 22.329 12.38zM270.903.105l-1.692 1.693 7.407 4.02zm-51.217 51.217L208.68 62.329l4.766 2.22zm159.58 377.149l.423 4.656 5.185-5.185zm-70.16-305.084l-35.027 8.36 2.75 11.64 34.921-8.255zm20.211 57.46l-13.016-33.545-11.108 4.341 13.013 33.544zm39.155 30.9l-35.77 2.961.952 11.958 35.875-3.066zM349 200.109l15.027-32.593-10.897-4.976-15.027 32.592zm72.382-10.371l-12.169 33.757 11.217 4.022 12.275-33.864zm-5.502 62.858l2.752-11.64-34.921-8.466-2.753 11.64zm48.995 63.81L451.86 282.86l-11.114 4.337 13.019 33.548zm-113.545 28.89v35.983h12.064V345.3zm19.365-29.737l-35.77 2.96.953 11.959 35.767-3.172zM76.933 273.654l11.852-1.693-5.292-35.556-11.851 1.694zM379.795 256.3l-11.535 33.968 11.322 3.916 11.64-34.074zm23.599 71.642l-27.62 22.964 7.725 9.206 27.619-22.963zm28.783 22.011l-33.334 13.438 4.55 11.11 33.334-13.438zm-273.445-169.95l9.421 7.299 22.011-28.36-9.42-7.3zm6.138-46.562l11.217 4.021 12.17-33.757-11.217-4.02zm-56.403 46.455l-9.736 6.986 21.058 29.1 9.736-6.983zm91.96 14.92l35.771-2.96-.952-11.958-35.876 3.066zm190.265 21.161l9.736-6.984-20.953-29.206-9.736 6.984zM62.859 226.564l35.77-2.96-.952-11.959-35.877 3.067zm47.196 17.356l34.815 8.571 2.752-11.64-34.71-8.467zm223.918-136.721l-10.899 34.18 11.428 3.597 10.9-34.18zm-47.937-53.017l-12.173 33.757 11.217 4.021 12.169-33.757zm-87.726 36.93l35.77-2.96-.952-11.958-35.876 3.066zm14.074 47.091l11.852-1.693-5.291-35.556-11.852 1.694zm33.122-29.736l34.921 8.466 2.752-11.64-34.815-8.36z" fill="#ffd82b"/></svg>